<?xml version="1.0" standalone="no"?>
<!DOCTYPE svg PUBLIC "-//W3C//DTD SVG 20010904//EN"
 "http://www.w3.org/TR/2001/REC-SVG-20010904/DTD/svg10.dtd">
<svg version="1.0" xmlns="http://www.w3.org/2000/svg"
 width="580.000000pt" height="736.000000pt" viewBox="0 0 580.000000 736.000000"
 preserveAspectRatio="xMidYMid meet">

<g transform="translate(0.000000,736.000000) scale(0.100000,-0.100000)"
fill="#000000" stroke="none">
<path d="M513 7325 c-54 -28 -143 -100 -143 -117 0 -5 -9 -22 -19 -36 -10 -15
-19 -29 -19 -32 0 -3 -5 -18 -11 -33 -28 -74 -1 -75 77 -2 58 53 62 55 116 55
31 0 56 -4 56 -9 0 -5 -10 -22 -23 -38 -13 -15 -31 -50 -41 -78 -10 -27 -27
-64 -38 -82 -28 -46 -39 -91 -25 -97 9 -5 9 -8 0 -12 -7 -3 -13 -20 -13 -37 0
-18 -9 -45 -20 -62 -16 -25 -20 -47 -20 -124 0 -83 2 -96 22 -112 11 -11 18
-19 14 -19 -5 0 2 -16 13 -36 18 -31 20 -45 15 -100 l-7 -64 29 0 c30 0 60 32
49 50 -10 16 11 11 25 -5 11 -13 9 -19 -8 -38 -21 -22 -53 -87 -58 -118 -2 -9
7 -21 21 -27 15 -7 22 -17 19 -25 -3 -9 12 -28 37 -48 49 -38 69 -44 70 -21 0
12 4 9 12 -8 20 -43 48 -59 101 -60 33 0 63 -8 90 -24 23 -13 52 -26 66 -29
36 -9 80 -54 80 -81 0 -25 -62 -95 -120 -136 l-31 -22 4 -87 c7 -116 22 -206
39 -234 8 -12 23 -49 33 -82 10 -33 22 -64 26 -70 19 -26 69 -174 69 -204 0
-28 -9 -43 -45 -76 l-45 -42 19 -75 c11 -41 33 -97 50 -123 17 -27 31 -55 31
-63 0 -8 8 -26 18 -40 10 -15 36 -58 57 -97 20 -38 51 -91 67 -117 17 -26 38
-78 48 -115 9 -38 33 -109 53 -158 24 -61 39 -120 46 -180 5 -50 16 -109 25
-132 8 -22 12 -44 8 -47 -3 -4 30 -5 74 -4 43 2 86 1 94 -2 19 -6 27 45 10 65
-7 8 -12 68 -14 157 -2 140 -5 157 -33 188 -8 8 -43 65 -78 125 -35 61 -78
128 -94 151 -17 23 -40 67 -51 99 -11 32 -25 64 -31 71 -6 7 -7 19 -3 25 4 7
3 9 -3 6 -5 -3 -21 17 -34 46 -13 29 -26 54 -29 57 -3 3 -6 29 -8 57 -3 60 11
94 57 137 17 16 27 34 24 40 -3 6 -3 8 2 4 4 -4 14 -3 21 3 17 14 8 58 -15 77
-9 8 -10 11 -3 7 15 -8 15 0 1 26 -5 11 -15 17 -22 13 -7 -4 -9 -4 -5 1 10 11
-21 67 -32 60 -6 -4 -10 3 -10 14 0 11 -18 41 -40 66 -22 25 -40 49 -40 53 1
4 10 -4 20 -17 26 -30 25 -21 -1 23 -12 20 -26 33 -32 29 -6 -4 -8 0 -4 10 3
9 1 17 -4 19 -6 2 -19 35 -29 73 -22 79 -24 97 -10 75 7 -11 8 -3 4 26 -5 34
-2 48 17 76 32 46 172 158 198 158 24 0 47 31 55 75 4 19 3 24 -2 12 -7 -17
-9 -17 -19 5 -15 29 -22 88 -11 88 4 0 8 16 8 35 0 39 0 39 -34 24 -14 -7 -22
-17 -19 -25 9 -24 -13 -15 -27 11 -7 13 -17 22 -21 19 -5 -3 -17 0 -26 6 -16
10 -16 11 2 5 15 -4 13 0 -9 20 -16 14 -36 26 -45 27 -9 0 -35 2 -59 4 -47 3
-76 20 -68 40 7 18 -37 32 -132 43 -91 10 -92 11 -96 38 -2 10 -9 18 -17 18
-17 0 -39 19 -39 34 0 5 10 11 23 14 22 3 22 3 -3 14 -14 6 -38 26 -55 44 -16
18 -21 27 -11 19 18 -14 18 -14 6 6 -7 12 -20 21 -29 20 -11 -1 -15 6 -14 24
8 83 4 203 -6 213 -17 17 -13 104 6 140 11 21 16 52 15 89 -2 43 1 56 10 53 8
-3 25 14 41 40 15 26 32 43 37 40 6 -3 10 -1 10 6 0 18 78 2 108 -21 13 -11
37 -20 51 -20 30 0 81 -21 81 -32 0 -5 9 -8 20 -8 11 0 20 -4 20 -10 0 -5 12
-13 28 -16 15 -4 39 -15 54 -25 28 -20 53 -25 43 -9 -3 6 -2 10 3 10 11 0 43
-35 76 -84 19 -28 26 -33 26 -20 0 11 -7 30 -16 42 -9 13 -14 26 -11 28 9 9
44 -51 54 -94 13 -49 8 -78 -17 -107 -10 -11 -20 -45 -23 -75 -3 -30 -4 -49
-1 -42 8 18 24 15 24 -6 0 -10 6 -19 13 -19 6 0 31 -3 55 -7 38 -7 42 -6 42
13 0 12 -5 21 -11 21 -8 0 -8 4 -1 13 5 6 12 28 15 47 3 19 10 55 16 80 32
142 -20 358 -87 360 -6 0 -11 -3 -10 -7 5 -18 -13 -93 -22 -93 -12 0 -46 37
-72 78 -16 26 -19 43 -15 77 6 41 4 46 -35 84 -34 35 -121 101 -132 101 -2 0
2 -17 10 -37 19 -53 17 -81 -5 -93 -24 -12 -52 -1 -131 51 -30 20 -65 40 -77
43 -20 6 -43 51 -43 84 0 9 7 24 17 34 9 10 14 21 11 24 -4 3 -48 8 -100 11
-86 4 -97 3 -145 -22z m108 -372 c-10 -17 -10 -16 -11 3 0 23 13 41 18 25 2
-6 -1 -18 -7 -28z m4 -43 c3 -5 -1 -10 -9 -10 -9 0 -16 5 -16 10 0 6 4 10 9
10 6 0 13 -4 16 -10z m-59 -101 c-3 -17 -6 -40 -6 -51 0 -17 -2 -18 -15 -4
-18 18 -19 40 -3 66 19 30 31 24 24 -11z m752 -81 c7 -7 11 -32 11 -57 l-1
-46 -11 50 c-5 28 -15 53 -21 57 -7 5 -7 8 0 8 5 0 15 -5 22 -12z m-44 -23
c-4 -8 -8 -15 -10 -15 -2 0 -4 7 -4 15 0 8 4 15 10 15 5 0 7 -7 4 -15z m-744
-25 c0 -16 -4 -30 -8 -30 -5 0 -7 14 -4 30 2 17 6 30 8 30 2 0 4 -13 4 -30z
m190 -560 c0 -5 -2 -10 -4 -10 -3 0 -8 5 -11 10 -3 6 -1 10 4 10 6 0 11 -4 11
-10z m365 -102 c14 -6 25 -14 25 -17 0 -4 10 -7 21 -8 26 -2 39 -14 22 -20 -7
-3 -13 -12 -14 -21 0 -14 -2 -13 -10 3 -6 11 -29 32 -52 47 -43 28 -39 37 8
16z m162 -45 c-3 -10 -5 -4 -5 12 0 17 2 24 5 18 2 -7 2 -21 0 -30z"/>
<path d="M721 6926 c-28 -19 -51 -54 -51 -76 0 -5 9 -14 20 -20 30 -16 82 22
74 54 -4 18 -1 25 16 29 12 3 20 11 18 19 -7 20 -44 17 -77 -6z"/>
<path d="M797 6903 c-14 -13 -6 -21 36 -38 66 -27 74 -28 52 -10 -20 17 -20
17 3 10 12 -3 22 -2 22 3 0 17 -32 23 -48 10 -10 -8 -13 -9 -9 -2 4 7 0 14 -8
18 -8 3 -15 1 -15 -4 0 -6 -5 -10 -11 -10 -6 0 -9 7 -5 15 5 15 -5 20 -17 8z"/>
<path d="M990 6821 c12 -24 23 -31 52 -36 13 -3 30 -13 39 -24 25 -31 31 -12
7 22 -11 16 -36 36 -54 43 -47 20 -57 18 -44 -5z"/>
<path d="M660 6808 c0 -7 9 -19 20 -25 17 -12 18 -11 11 9 -9 25 -31 36 -31
16z"/>
<path d="M1110 6710 l-25 -8 28 -1 c15 -1 29 -1 32 -1 9 0 7 14 -2 16 -4 1
-19 -2 -33 -6z"/>
<path d="M1005 6700 c3 -5 13 -10 21 -10 8 0 14 5 14 10 0 6 -9 10 -21 10 -11
0 -17 -4 -14 -10z"/>
<path d="M616 6664 c-7 -18 0 -34 15 -34 5 0 9 11 9 25 0 28 -15 34 -24 9z"/>
<path d="M957 6623 c-3 -5 -21 -38 -41 -75 -31 -57 -33 -68 -21 -78 12 -10 15
-9 15 3 0 23 51 137 61 137 5 0 9 5 9 10 0 12 -17 13 -23 3z"/>
<path d="M1154 6612 c-6 -4 -14 -25 -17 -47 -4 -27 -3 -35 3 -25 8 12 10 9 10
-12 0 -15 5 -30 10 -33 6 -4 10 18 10 59 0 36 -1 66 -2 66 -2 0 -8 -4 -14 -8z"/>
<path d="M630 6601 c0 -6 5 -13 10 -16 6 -3 10 1 10 9 0 9 -4 16 -10 16 -5 0
-10 -4 -10 -9z"/>
<path d="M1341 6554 c0 -11 3 -14 6 -6 3 7 2 16 -1 19 -3 4 -6 -2 -5 -13z"/>
<path d="M716 6529 c-14 -17 -26 -39 -26 -49 0 -22 97 -140 115 -140 4 0 14
-7 23 -16 14 -15 16 -15 24 5 21 58 13 161 -13 161 -4 0 -24 16 -45 35 -20 19
-40 35 -45 35 -4 0 -19 -14 -33 -31z"/>
<path d="M1341 6514 c0 -11 3 -14 6 -6 3 7 2 16 -1 19 -3 4 -6 -2 -5 -13z"/>
<path d="M1136 6454 c-3 -8 -10 -12 -16 -9 -5 3 -10 1 -10 -4 0 -6 6 -11 13
-12 6 0 2 -5 -10 -11 -13 -6 -23 -15 -23 -20 0 -4 -8 -8 -18 -8 -13 0 -23 -13
-32 -40 -7 -22 -10 -43 -7 -47 4 -3 24 -2 45 3 42 10 65 47 77 122 7 41 -6 59
-19 26z"/>
<path d="M657 6454 c-15 -15 -6 -34 16 -34 12 0 17 3 11 8 -6 4 -13 13 -15 20
-3 7 -8 10 -12 6z"/>
<path d="M887 6431 c-4 -17 -3 -21 5 -13 5 5 8 16 6 23 -3 8 -7 3 -11 -10z"/>
<path d="M1195 6436 c-14 -11 -16 -15 -5 -16 11 0 11 -3 2 -12 -18 -18 -14
-30 8 -23 28 9 26 -16 -3 -46 -55 -57 -78 -74 -85 -62 -6 10 -17 10 -45 1 -36
-11 -37 -12 -22 -35 14 -21 14 -23 -1 -23 -13 0 -15 -6 -11 -29 8 -37 -15 -48
-50 -26 -13 9 -29 15 -35 13 -5 -2 13 -18 42 -36 57 -35 93 -42 83 -16 -14 38
80 72 107 39 27 -33 134 -9 136 30 1 11 2 26 3 33 1 8 6 10 14 6 9 -6 9 -5 1
7 -8 9 -9 30 -5 60 7 45 -7 88 -22 72 -4 -3 -8 6 -8 20 -1 15 -2 33 -3 40 -2
18 -77 21 -101 3z m102 -158 c-3 -7 -5 -2 -5 12 0 14 2 19 5 13 2 -7 2 -19 0
-25z"/>
<path d="M815 6210 c3 -5 11 -10 16 -10 6 0 7 5 4 10 -3 6 -11 10 -16 10 -6 0
-7 -4 -4 -10z"/>
<path d="M1011 6204 c0 -11 3 -14 6 -6 3 7 2 16 -1 19 -3 4 -6 -2 -5 -13z"/>
<path d="M900 6186 c0 -2 7 -6 15 -10 8 -3 15 -1 15 4 0 6 -7 10 -15 10 -8 0
-15 -2 -15 -4z"/>
<path d="M1177 6039 c7 -7 15 -10 18 -7 3 3 -2 9 -12 12 -14 6 -15 5 -6 -5z"/>
<path d="M4880 5931 c-30 -16 -104 -53 -165 -84 -123 -60 -149 -76 -227 -129
-55 -37 -236 -138 -247 -138 -3 0 -18 20 -32 43 -22 36 -48 54 -190 132 l-164
90 -95 0 c-186 0 -440 44 -440 77 0 14 -18 9 -56 -17 -43 -29 -114 -34 -169
-11 -31 13 -35 13 -52 -6 -15 -17 -18 -35 -15 -126 2 -91 22 -249 38 -303 8
-30 -48 -9 -103 37 -28 24 -55 44 -61 44 -5 0 -47 25 -93 56 -114 76 -111 76
-93 12 11 -38 29 -67 64 -103 73 -75 111 -148 155 -293 29 -97 43 -132 57
-135 10 -3 18 -13 18 -23 0 -30 49 -104 70 -104 26 0 33 29 33 140 1 78 2 89
10 60 10 -38 -9 -293 -24 -320 -5 -8 -9 -12 -9 -8 0 4 -15 2 -32 -4 -34 -11
-102 -69 -120 -101 -8 -17 -7 -17 12 -7 43 23 29 3 -20 -29 -73 -47 -102 -89
-95 -137 10 -76 12 -123 3 -118 -4 3 -8 14 -8 24 0 10 -5 31 -10 46 l-11 27
-23 -32 c-24 -32 -73 -187 -63 -197 3 -4 28 12 55 35 62 52 78 53 27 1 -21
-21 -43 -36 -48 -33 -6 4 -8 0 -4 -11 5 -12 0 -19 -18 -26 -13 -5 -29 -19 -36
-32 -6 -13 -31 -49 -55 -80 -24 -32 -41 -64 -38 -71 5 -15 188 -122 217 -128
18 -4 18 -6 -3 -32 -12 -15 -27 -27 -33 -25 -23 4 -77 -14 -77 -25 0 -11 19
-44 52 -89 10 -14 8 -21 -11 -42 -13 -14 -37 -28 -53 -31 l-30 -7 26 -27 c14
-15 26 -32 26 -38 0 -6 5 -13 11 -15 6 -2 -5 -29 -25 -63 -20 -32 -36 -51 -36
-42 0 14 -9 17 -52 16 -29 -1 -66 -4 -83 -8 -22 -5 -39 -1 -65 15 -19 12 -79
36 -132 54 -94 32 -99 33 -130 18 -18 -9 -52 -24 -76 -34 -55 -22 -59 -30 -30
-54 31 -26 12 -25 -31 1 -25 15 -48 20 -90 18 l-56 -3 3 32 c2 22 -2 34 -17
41 -10 6 -22 24 -26 40 -5 23 -15 32 -48 44 -82 28 -83 28 -60 16 28 -15 30
-36 3 -44 -11 -3 -20 -14 -21 -23 -2 -41 3 -88 12 -96 16 -18 9 -95 -13 -140
-29 -60 -41 -49 -17 14 10 28 19 59 19 71 0 21 -2 25 -44 73 -22 24 -24 35
-19 72 l6 44 -32 -6 c-20 -4 -31 -3 -31 5 0 6 7 11 15 11 8 0 15 4 15 9 0 5
-8 7 -18 4 -12 -3 -18 2 -19 16 -1 18 4 21 33 21 19 0 34 5 34 10 0 14 -67 12
-120 -4 -40 -12 -45 -17 -48 -45 -4 -40 -22 -41 -22 -1 0 28 -2 30 -37 30 -73
0 -112 -11 -106 -29 6 -14 4 -14 -14 2 -27 23 -33 22 -34 -10 -1 -17 -3 -21
-6 -10 -10 39 -34 9 -29 -37 4 -37 -12 -32 -22 6 l-8 32 -17 -41 c-21 -52 -74
-114 -92 -107 -9 4 -18 -7 -26 -35 -7 -22 -15 -38 -19 -36 -4 2 -5 -6 -3 -19
3 -13 0 -27 -6 -30 -17 -11 -12 -47 14 -101 29 -59 30 -71 9 -134 -15 -48 -15
-49 15 -109 17 -33 43 -69 59 -81 21 -15 31 -32 36 -63 10 -61 40 -103 106
-148 32 -22 62 -44 65 -50 3 -5 26 -10 50 -10 24 0 46 -4 49 -9 3 -4 33 -11
67 -14 90 -8 107 -25 148 -143 19 -54 38 -100 43 -102 4 -2 8 -31 8 -65 0 -81
16 -161 55 -282 18 -55 48 -152 65 -215 18 -63 45 -159 61 -214 18 -63 29
-122 29 -162 0 -64 8 -85 67 -173 21 -31 72 -176 88 -248 6 -29 4 -33 -20 -39
-15 -4 -31 -2 -38 5 -21 21 -36 11 -49 -31 -18 -63 -122 -163 -220 -211 -89
-44 -113 -70 -123 -130 -4 -23 -14 -57 -22 -74 -24 -52 -10 -80 86 -175 98
-95 157 -128 230 -128 74 1 190 25 279 60 45 17 89 29 97 26 9 -3 16 -27 21
-65 l6 -60 39 -6 c59 -10 100 3 147 48 47 46 53 78 27 140 -8 20 -15 39 -15
42 0 11 84 43 130 50 50 8 89 26 137 63 l33 24 42 -22 c69 -35 157 -127 189
-197 16 -35 29 -69 29 -76 0 -7 6 -22 14 -33 14 -19 15 -19 38 2 54 48 237
143 363 187 39 14 104 30 145 37 41 6 127 20 190 30 277 46 471 70 499 63 18
-5 21 -13 21 -58 0 -32 -5 -57 -14 -64 -8 -7 -15 -40 -18 -83 l-6 -73 61 -104
c38 -63 78 -117 103 -137 90 -74 224 -110 349 -94 39 5 101 9 138 10 38 0 76
4 86 10 10 5 36 10 57 11 58 4 139 64 232 172 l80 94 -13 89 c-17 112 -24 131
-70 174 -26 25 -34 41 -31 56 6 24 -25 59 -52 59 -12 0 -19 11 -22 35 -3 19
-17 51 -32 71 -16 20 -28 44 -28 53 0 44 -36 83 -136 148 -44 27 -55 51 -100
213 -9 33 -25 69 -35 81 -30 32 -88 218 -104 331 -8 56 -28 155 -45 220 -35
134 -54 309 -38 355 10 27 7 80 -8 168 -4 28 -1 39 15 54 25 23 26 41 5 91
-19 46 -13 63 23 67 22 2 30 10 39 37 15 47 66 66 122 47 61 -21 137 -27 209
-16 164 26 238 66 309 166 25 35 51 64 58 64 29 0 84 52 113 107 46 85 51 137
19 193 -14 25 -39 86 -57 135 -17 50 -40 107 -51 128 -25 50 -19 63 31 71 60
9 67 32 24 79 -30 34 -34 44 -29 75 4 26 1 41 -11 54 -15 17 -15 18 8 18 55 0
63 40 18 86 -30 31 -31 35 -20 63 7 16 35 44 64 63 164 108 172 119 141 179
-25 50 -84 139 -117 178 -34 40 -44 64 -50 124 -7 57 -26 98 -52 112 -43 22
-75 48 -70 55 3 5 -11 21 -30 37 -45 35 -65 71 -65 120 0 48 -6 56 -55 81 -22
11 -86 51 -143 89 -86 58 -108 68 -136 65 -36 -4 -190 36 -263 68 -24 11 -43
26 -43 34 0 35 -71 11 -146 -50 -23 -18 -45 -30 -49 -26 -5 4 -5 2 -2 -4 4 -6
-6 -22 -21 -35 -26 -23 -26 -23 -7 -1 19 23 19 23 -3 29 l-22 5 24 19 c33 26
44 61 49 166 4 54 12 104 21 122 9 16 16 45 16 62 0 20 9 42 22 56 22 24 27
64 13 115 -6 23 -3 29 23 42 19 10 40 35 57 68 49 100 60 112 126 145 70 35
169 127 154 142 -25 24 -80 21 -135 -8z m-1461 -123 c18 -29 8 -21 -39 29 -40
41 -41 43 -9 17 20 -16 41 -37 48 -46z m-245 -1 c4 4 5 1 2 -7 -4 -10 28 -39
100 -90 58 -41 113 -82 122 -91 10 -9 32 -24 50 -35 17 -10 32 -22 32 -27 0
-4 4 -6 9 -3 4 3 19 -6 31 -19 34 -36 14 -30 -36 10 -23 19 -45 35 -48 35 -8
0 -107 61 -126 78 -8 7 -33 27 -55 43 -59 45 -135 119 -135 131 0 7 10 2 23
-10 13 -12 27 -19 31 -15z m46 19 c0 -2 -7 -7 -16 -10 -8 -3 -12 -2 -9 4 6 10
25 14 25 6z m701 -139 c-13 -13 -109 7 -137 28 -17 13 -14 13 21 1 22 -7 55
-16 73 -19 31 -6 32 -5 33 26 l1 32 10 -28 c7 -20 7 -32 -1 -40z m-336 -11
c17 -12 32 -24 36 -28 3 -5 36 -24 75 -43 58 -29 65 -36 47 -41 -16 -4 -23
-15 -26 -43 -3 -32 -4 -31 -5 11 -2 45 -5 50 -44 74 -24 15 -59 39 -79 55 -25
19 -39 25 -50 18 -7 -5 -18 -9 -24 -9 -5 1 -2 5 8 11 18 10 18 11 0 25 -16 14
-16 14 7 3 14 -7 39 -22 55 -33z m995 26 c0 -10 -99 -102 -111 -102 -5 0 -9
-6 -9 -12 0 -9 -3 -9 -9 1 -8 12 -12 12 -25 2 -8 -7 -13 -18 -10 -26 3 -7 -10
-25 -29 -41 -40 -33 -87 -112 -79 -133 3 -8 0 -11 -7 -7 -7 5 -11 -1 -11 -14
0 -16 -4 -20 -16 -16 -9 3 -19 6 -23 6 -14 0 -22 102 -10 117 6 7 15 10 20 7
5 -3 9 3 9 13 0 24 19 43 43 43 10 0 16 4 12 10 -3 5 13 14 35 21 22 7 40 18
40 26 0 7 7 16 15 19 8 4 12 10 9 15 -3 5 2 6 11 3 9 -4 15 -2 13 5 -2 6 10
19 27 29 16 9 35 23 43 30 15 13 62 17 62 4z m-592 -89 c0 -10 3 -27 6 -38 8
-20 7 -20 -8 -1 -18 22 -21 56 -7 56 6 0 9 -8 9 -17z m-123 -67 c28 -8 41 -14
30 -14 -21 0 -107 25 -90 27 6 0 33 -6 60 -13z m-70 -14 c-3 -3 -11 0 -18 7
-9 10 -8 11 6 5 10 -3 15 -9 12 -12z m173 -87 c-5 -5 -158 74 -158 81 0 2 36
-14 81 -37 45 -22 79 -42 77 -44z m-11 79 c-3 -3 -12 -4 -19 -1 -8 3 -5 6 6 6
11 1 17 -2 13 -5z m40 -10 c-3 -3 -12 -4 -19 -1 -8 3 -5 6 6 6 11 1 17 -2 13
-5z m-397 -30 c0 -2 -9 0 -20 6 -11 6 -20 13 -20 16 0 2 9 0 20 -6 11 -6 20
-13 20 -16z m59 -42 c7 -7 11 -15 9 -17 -2 -3 -18 10 -34 27 -26 29 -9 22 25
-10z m91 -59 c0 -3 -7 0 -15 7 -8 7 -15 24 -15 39 1 25 1 25 15 -8 8 -18 15
-36 15 -38z m280 27 c8 -5 11 -10 5 -10 -5 0 -21 10 -35 21 -24 20 -5 13 30
-11z m-946 4 c3 -8 2 -12 -4 -9 -6 3 -10 10 -10 16 0 14 7 11 14 -7z m202 -56
c-20 -24 -41 -47 -47 -53 -5 -5 -20 -20 -31 -32 -23 -24 -38 -29 -38 -13 0 5
18 21 39 36 22 14 42 36 45 48 3 12 17 28 31 34 14 6 25 17 25 23 0 7 3 9 6 6
4 -4 -10 -26 -30 -49z m-187 -27 c1 -35 -5 -22 -12 24 -5 28 -4 34 3 20 5 -11
9 -31 9 -44z m-39 39 c0 -5 -2 -10 -4 -10 -3 0 -8 5 -11 10 -3 6 -1 10 4 10 6
0 11 -4 11 -10z m305 -28 c-3 -3 -11 0 -18 7 -9 10 -8 11 6 5 10 -3 15 -9 12
-12z m215 9 c0 -15 -56 -51 -77 -50 -16 0 -16 1 2 9 11 4 29 17 40 28 22 23
35 27 35 13z m-93 -17 c-3 -3 -12 -4 -19 -1 -8 3 -5 6 6 6 11 1 17 -2 13 -5z
m164 -47 c37 -23 10 -55 -34 -41 -44 14 -49 30 -19 65 26 32 27 32 30 11 2
-13 12 -28 23 -35z m489 39 c0 -3 -4 -8 -10 -11 -5 -3 -10 -1 -10 4 0 6 5 11
10 11 6 0 10 -2 10 -4z m-80 -41 c-7 -8 -24 -14 -39 -14 -20 1 -22 2 -6 6 11
3 24 9 30 14 15 15 28 10 15 -6z m-953 -57 c-2 -13 -4 -5 -4 17 -1 22 1 32 4
23 2 -10 2 -28 0 -40z m862 42 c4 0 8 -6 8 -14 0 -18 -34 -9 -41 11 -5 11 -2
13 10 9 8 -3 19 -6 23 -6z m-758 -47 c13 -16 12 -17 -3 -4 -10 7 -18 15 -18
17 0 8 8 3 21 -13z m622 -4 c22 14 22 14 3 -8 -20 -22 -51 -27 -75 -12 -12 8
-13 12 -1 25 12 15 15 15 32 -1 17 -15 22 -15 41 -4z m188 -31 c8 -15 8 -18 0
-14 -6 4 -16 16 -22 28 -8 15 -8 18 0 14 6 -4 16 -16 22 -28z m-627 -35 c-16
-27 -38 -64 -51 -83 -44 -66 -22 -82 33 -25 19 20 34 42 34 49 0 18 27 29 36
14 4 -7 9 -6 15 3 13 21 11 29 -8 30 -12 1 -9 4 7 8 33 10 35 8 16 -30 -19
-39 -20 -59 -3 -59 7 0 17 -20 23 -45 9 -37 7 -51 -8 -82 -9 -21 -17 -43 -18
-49 0 -6 -10 -19 -22 -27 -23 -16 -23 -16 10 -16 49 -1 135 43 179 93 21 23
45 45 53 48 8 2 10 7 4 11 -6 3 -25 -7 -42 -23 -18 -16 -38 -27 -46 -24 -37
14 34 124 80 124 27 0 41 -30 20 -46 -13 -9 -13 -12 2 -27 10 -11 12 -17 4
-17 -7 0 -12 -6 -12 -13 0 -7 -18 -34 -40 -61 -22 -26 -40 -52 -40 -57 0 -14
-42 -49 -52 -43 -5 3 -18 -6 -28 -19 -18 -22 -23 -24 -44 -14 -23 11 -24 14
-11 34 l15 22 -43 -12 c-70 -21 -147 -10 -147 21 0 13 2 14 9 4 5 -8 17 -12
27 -10 16 3 14 7 -12 21 -31 16 -32 16 -38 -6 -4 -16 1 -28 22 -46 l27 -23
-44 23 -43 24 4 73 c4 58 1 81 -14 111 -18 37 -18 39 1 82 21 46 29 40 10 -8
-11 -29 -4 -93 10 -93 5 0 14 14 20 30 17 49 109 180 127 180 3 0 -7 -21 -22
-47z m-84 -9 c0 -8 -4 -12 -10 -9 -5 3 -10 13 -10 21 0 8 5 12 10 9 6 -3 10
-13 10 -21z m439 -9 c23 -14 49 -25 57 -25 8 0 26 -8 40 -17 18 -12 28 -13 33
-5 5 8 14 7 35 -3 16 -8 35 -15 42 -15 30 0 4 -56 -43 -93 -17 -14 -21 -24
-16 -47 3 -19 1 -30 -6 -30 -6 0 -11 9 -11 20 0 11 -5 40 -12 65 -10 39 -10
48 2 55 19 12 8 22 -24 24 -14 0 -26 7 -26 14 0 6 -7 12 -15 12 -9 0 -39 16
-68 35 -60 40 -53 47 12 10z m-229 -10 c0 -8 -7 -15 -15 -15 -9 0 -12 6 -9 15
4 8 10 15 15 15 5 0 9 -7 9 -15z m1122 -117 c-7 -7 -12 -8 -12 -2 0 6 3 14 7
17 3 4 9 5 12 2 2 -3 -1 -11 -7 -17z m-1 -40 c-22 -22 -41 -35 -41 -29 0 5 5
13 11 16 6 5 4 11 -7 19 -13 10 -14 15 -4 21 8 5 11 4 7 -2 -4 -6 0 -13 8 -17
9 -3 23 7 37 26 14 20 23 27 26 18 3 -7 -14 -31 -37 -52z m-291 37 c0 -8 -4
-15 -10 -15 -5 0 -10 7 -10 15 0 8 5 15 10 15 6 0 10 -7 10 -15z m-560 -35
c-12 -23 -30 -35 -30 -21 0 5 5 13 10 16 8 5 8 11 1 19 -14 17 -1 29 15 15 10
-8 11 -16 4 -29z m730 -34 c0 -2 -8 -10 -17 -17 -16 -13 -17 -12 -4 4 13 16
21 21 21 13z m-680 -140 c0 -6 -7 -1 -15 10 -8 10 -14 26 -14 34 0 16 28 -28
29 -44z m-32 3 c-2 -6 -8 -10 -13 -10 -5 0 -11 4 -13 10 -2 6 4 11 13 11 9 0
15 -5 13 -11z m-38 -19 c0 -12 -62 -52 -69 -44 -6 5 49 53 62 54 4 0 7 -5 7
-10z m670 -39 c0 -11 -4 -22 -9 -26 -14 -8 -33 32 -26 55 6 17 8 18 21 6 8 -8
14 -24 14 -35z m593 31 c-11 -12 -22 -15 -28 -10 -11 10 10 28 33 28 8 0 6 -6
-5 -18z m62 8 c-3 -5 2 -10 11 -10 10 0 15 -3 11 -6 -10 -10 -39 5 -32 16 3 5
8 10 11 10 3 0 2 -4 -1 -10z m-1677 -41 c-7 -5 -7 -17 0 -40 6 -19 14 -62 18
-97 l7 -62 29 40 c23 31 37 40 61 42 18 0 43 2 57 3 14 0 43 10 64 20 47 23
123 22 203 -1 30 -9 61 -13 69 -10 8 3 14 -1 14 -9 0 -20 -30 -19 -90 5 -53
21 -156 28 -145 10 3 -5 16 -10 28 -10 19 0 18 -3 -11 -22 -41 -26 -112 -40
-129 -26 -14 11 -36 1 -28 -13 4 -5 -15 -9 -42 -9 -44 0 -49 -3 -61 -30 -14
-30 -41 -41 -43 -17 -1 6 -1 37 0 67 3 83 -15 151 -47 178 l-27 22 42 -17 c23
-10 37 -21 31 -24z m162 31 c0 -5 -7 -10 -15 -10 -8 0 -15 5 -15 10 0 6 7 10
15 10 8 0 15 -4 15 -10z m1810 -23 c0 -35 -11 -67 -21 -61 -5 3 -9 -2 -9 -11
0 -9 5 -13 11 -10 5 4 35 -10 66 -30 61 -41 67 -60 6 -23 -36 22 -89 48 -98
48 -3 0 -8 -18 -11 -40 -4 -22 -11 -43 -16 -46 -7 -4 -8 8 -4 33 8 47 -15 83
-75 113 -21 11 -39 23 -39 26 0 10 44 -7 82 -32 21 -13 43 -24 50 -24 17 1 50
68 42 82 -4 7 -2 8 4 4 7 -4 12 -17 12 -29z m-207 6 c-7 -2 -21 -2 -30 0 -10
3 -4 5 12 5 17 0 24 -2 18 -5z m-2061 -40 c-6 -65 -10 -70 -11 -15 0 28 3 52
7 52 4 0 6 -17 4 -37z m1862 2 c-8 -19 -12 -48 -9 -63 5 -23 5 -25 -5 -9 -18
29 1 105 27 107 1 0 -5 -16 -13 -35z m-1299 -5 c7 -12 -41 -32 -64 -27 -11 2
-7 8 14 20 36 19 42 20 50 7z m258 -36 c5 -30 -8 -20 -18 15 -4 15 -3 21 3 17
5 -3 12 -17 15 -32z m-809 -50 c3 -8 2 -12 -4 -9 -6 3 -10 10 -10 16 0 14 7
11 14 -7z m709 -31 c-2 -8 9 -10 32 -7 19 2 51 6 71 8 32 5 34 3 28 -16 -3
-12 -23 -37 -43 -57 -35 -35 -55 -65 -85 -127 -27 -55 -144 -134 -198 -134
-20 0 -17 4 15 22 36 21 48 38 27 38 -5 0 -10 12 -10 26 0 21 -4 25 -20 21
-15 -4 -22 1 -26 19 -7 26 -24 33 -24 10 0 -22 -19 -30 -35 -16 -16 13 -21 96
-7 116 17 26 59 37 137 36 l81 -1 -4 29 c-3 24 -1 30 14 30 16 0 17 2 4 11
-12 7 -8 9 15 7 17 -2 29 -8 28 -15z m529 -65 c2 -21 1 -38 -3 -38 -4 0 -7
-10 -6 -22 0 -13 -8 -59 -18 -103 l-19 -80 -7 45 c-4 25 -5 56 -3 70 l4 25
-10 -25 c-6 -13 -12 -50 -13 -80 -1 -45 4 -66 26 -103 31 -52 46 -65 57 -47 5
9 9 9 14 1 4 -6 2 -11 -5 -11 -7 0 -4 -6 6 -14 17 -12 18 -15 3 -30 -18 -17
-48 -22 -48 -7 0 6 5 13 10 16 6 3 10 11 10 16 0 6 -4 7 -10 4 -5 -3 -10 1
-10 10 0 10 -6 15 -12 12 -68 -25 -82 -15 -79 52 2 65 23 170 58 288 23 77 29
89 39 75 6 -9 13 -34 16 -54z m1089 4 c-7 -2 -23 5 -35 17 l-21 22 35 -17 c20
-10 29 -19 21 -22z m-587 -57 c14 -21 26 -49 26 -62 0 -13 0 -26 1 -30 0 -4
-4 -9 -10 -11 -6 -2 -8 3 -5 12 11 28 -17 85 -57 119 -21 19 -36 37 -33 40 10
10 50 -25 78 -68z m-841 48 c-10 -27 -77 -146 -103 -183 -9 -14 -23 -43 -30
-65 -18 -58 -45 -107 -69 -129 -31 -28 -27 -2 9 56 17 26 30 53 30 58 0 5 13
31 29 57 15 27 49 87 75 136 26 48 51 87 56 87 5 0 6 -8 3 -17z m620 -3 c-11
-8 -25 -24 -31 -35 -9 -17 -11 -17 -12 -3 0 9 7 23 15 31 8 8 12 16 10 19 -2
2 5 4 16 4 20 0 20 -1 2 -16z m633 -78 c-11 -31 -22 -48 -34 -49 -9 -1 -28 -4
-42 -8 -23 -6 -24 -6 -5 7 19 12 24 14 43 17 5 0 17 29 27 64 13 44 20 55 22
39 3 -12 -3 -44 -11 -70z m254 57 c0 -6 -4 -7 -10 -4 -5 3 -10 11 -10 16 0 6
5 7 10 4 6 -3 10 -11 10 -16z m54 -41 c17 -129 17 -176 1 -224 -32 -96 -94
-191 -144 -219 -21 -12 -2 16 25 38 15 11 35 54 56 117 35 107 58 140 28 40
-10 -33 -14 -58 -10 -55 12 8 44 105 45 140 1 32 -11 140 -21 189 -4 18 -2 26
4 22 5 -3 12 -25 16 -48z m-2054 -58 c8 -19 25 -50 38 -67 28 -38 23 -44 -9
-10 -23 24 -58 94 -59 117 0 20 14 1 30 -40z m1890 -68 c47 -24 74 -40 60 -36
-42 11 -143 64 -175 91 l-30 26 30 -19 c17 -10 68 -38 115 -62z m-890 53 c20
-24 4 -45 -35 -45 -30 0 -35 3 -35 24 0 18 7 26 23 29 12 2 25 5 28 6 4 0 12
-6 19 -14z m311 -32 c-5 -10 -26 -33 -46 -52 -49 -46 -78 -112 -64 -148 12
-33 8 -36 -20 -16 -20 14 -23 21 -17 60 6 46 35 97 70 123 16 12 71 44 84 49
1 1 -2 -7 -7 -16z m-782 -40 c-12 -21 -30 -47 -39 -58 -10 -11 -22 -29 -29
-40 -10 -18 -11 -17 -5 8 5 22 3 27 -12 28 -13 0 -10 5 12 14 17 8 43 30 58
49 35 47 44 46 15 -1z m461 -38 c0 -8 -7 -15 -15 -15 -8 0 -15 7 -15 15 0 8 7
15 15 15 8 0 15 -7 15 -15z m1145 -42 c24 -27 42 -49 40 -51 -8 -8 -94 65 -94
81 -1 26 6 22 54 -30z m-2965 -58 c-10 -42 9 -105 31 -105 7 0 9 -3 6 -7 -13
-12 -45 28 -52 64 -4 21 -1 48 6 65 16 38 20 31 9 -17z m868 -110 c-5 -5 -84
113 -94 141 -4 11 17 -16 46 -59 29 -42 51 -79 48 -82z m486 114 c-24 -27 -29
-16 -8 16 10 16 20 23 22 16 2 -7 -4 -21 -14 -32z m96 37 c0 -3 -4 -8 -10 -11
-5 -3 -10 -1 -10 4 0 6 5 11 10 11 6 0 10 -2 10 -4z m175 -86 c3 -6 -1 -7 -9
-4 -18 7 -21 14 -7 14 6 0 13 -4 16 -10z m-1462 -72 c19 -15 19 -18 5 -18 -22
0 -38 30 -37 67 l2 28 4 -30 c2 -16 14 -38 26 -47z m1760 28 c29 -18 59 -36
67 -39 9 -3 5 -6 -10 -6 -24 -1 -59 17 -88 46 -7 7 -20 13 -28 13 -8 0 -12 5
-9 10 9 14 11 14 68 -24z m131 -2 c3 -8 2 -12 -4 -9 -6 3 -10 10 -10 16 0 14
7 11 14 -7z m-893 -24 c-13 -11 -28 -20 -35 -20 -6 0 3 9 19 20 38 25 47 25
16 0z m397 1 c3 -8 -1 -12 -9 -9 -7 2 -15 10 -17 17 -3 8 1 12 9 9 7 -2 15
-10 17 -17z m927 -13 c-4 -18 -12 -37 -17 -43 -7 -7 -8 -2 -3 15 3 14 9 33 11
43 9 30 16 18 9 -15z m-1048 10 c-2 -7 -11 -12 -19 -10 -9 1 -18 -7 -21 -18
-6 -25 -22 -26 -24 -2 -1 10 8 23 20 29 31 15 49 15 44 1z m262 -32 c12 -11
33 -14 74 -12 31 2 60 -1 63 -6 3 -5 12 -7 20 -4 7 3 18 -2 23 -12 5 -9 20
-17 32 -17 14 0 28 -9 35 -22 6 -13 14 -20 18 -15 5 4 7 -2 6 -13 -4 -33 -1
-38 14 -26 12 10 17 8 26 -8 6 -12 10 -27 9 -34 -4 -34 2 -45 21 -40 11 3 20
1 20 -5 0 -15 -31 -20 -67 -10 -24 6 -38 19 -53 48 -23 44 -39 58 -50 41 -7
-12 -28 9 -72 72 -14 20 -25 25 -60 23 l-42 -1 -12 -58 c-6 -32 -15 -61 -19
-65 -8 -7 1 65 11 92 4 11 1 16 -10 16 -9 0 -16 -7 -16 -15 0 -8 -7 -15 -15
-15 -8 0 -15 -9 -15 -20 0 -11 5 -20 10 -20 6 0 10 -13 10 -29 0 -25 -5 -30
-32 -36 -18 -4 -38 -11 -43 -15 -7 -6 -9 5 -7 31 2 21 8 42 13 45 15 9 10 49
-9 65 -28 24 -73 29 -117 13 -22 -7 -47 -14 -55 -14 -8 0 -27 -17 -41 -38 -15
-20 -56 -62 -92 -92 -36 -30 -66 -63 -66 -72 -1 -22 -2 -22 40 -1 50 25 135
30 158 9 18 -16 114 -45 153 -46 9 0 23 6 30 13 37 35 106 43 94 10 -3 -7 1
-16 8 -19 8 -3 15 -13 15 -22 0 -9 3 -29 6 -43 6 -22 2 -28 -24 -39 -33 -13
-39 -26 -18 -33 13 -4 -10 0 -53 10 -41 9 -111 6 -123 -6 -6 -6 -49 -11 -104
-11 -96 0 -122 -7 -186 -52 -37 -27 -29 -32 17 -13 21 9 45 15 53 13 9 -2 -22
-18 -68 -37 -84 -34 -199 -104 -199 -121 0 -19 33 -26 88 -16 52 8 64 6 124
-18 56 -22 78 -26 130 -22 35 3 65 6 68 7 3 1 9 1 13 0 11 -2 65 27 72 39 9
14 -13 50 -30 50 -8 0 -15 5 -15 11 0 20 25 3 49 -33 17 -26 33 -38 58 -43 31
-6 61 -26 116 -79 20 -19 20 -19 -3 -38 -20 -16 -21 -21 -9 -29 7 -5 22 -9 32
-9 9 0 17 -5 17 -11 0 -11 -21 -9 -77 7 -19 5 -23 2 -24 -17 l0 -24 -9 23
c-13 32 -24 27 -16 -8 3 -19 2 -29 -4 -25 -6 4 -10 -7 -10 -24 0 -45 -20 -49
-21 -4 -2 52 1 67 14 75 6 4 9 10 5 13 -3 3 -38 -5 -78 -19 -40 -14 -94 -29
-121 -32 -45 -6 -57 -14 -139 -94 -50 -48 -90 -92 -90 -98 0 -19 15 -21 57
-10 33 8 52 7 90 -5 94 -31 118 -31 190 -2 57 22 76 26 122 20 37 -5 50 -10
40 -16 -12 -7 -11 -11 3 -25 11 -11 36 -17 80 -19 83 -3 88 -3 88 -14 0 -6
-12 -6 -31 1 -38 13 -60 -2 -39 -27 7 -8 18 -15 24 -15 7 0 23 -11 36 -25 13
-14 33 -26 44 -26 17 -1 18 -2 3 -6 -9 -2 -31 6 -47 19 -17 13 -43 33 -59 46
-16 12 -34 22 -40 22 -6 0 -11 5 -11 10 0 6 -13 10 -28 10 -15 0 -33 5 -38 10
-7 7 -16 -3 -27 -29 -10 -21 -26 -41 -37 -44 -27 -7 -36 -64 -16 -102 9 -17
16 -36 16 -43 0 -15 -61 -94 -68 -88 -6 7 36 74 49 78 7 2 6 17 -5 42 -9 21
-16 53 -16 71 0 41 -10 50 -27 25 -8 -11 -18 -18 -23 -15 -4 3 -10 -4 -13 -14
-5 -20 -65 -36 -97 -26 -15 5 -20 2 -20 -12 0 -11 -14 -30 -31 -42 -20 -15
-28 -26 -21 -33 15 -15 -19 -98 -48 -116 l-25 -16 23 26 c18 20 22 34 19 68
-5 55 -30 72 -49 33 -18 -37 -32 -39 -62 -6 -31 34 -33 43 -6 43 11 0 23 6 26
14 3 8 15 17 27 20 22 6 22 7 3 21 -11 8 -25 15 -30 15 -6 0 -18 13 -27 29
-12 20 -27 30 -53 35 -21 4 -46 16 -56 26 -15 15 -19 16 -24 4 -3 -8 -11 -14
-18 -14 -17 0 -37 -32 -54 -89 -17 -56 -79 -161 -69 -118 3 15 26 69 50 120
25 50 45 97 45 104 0 15 -16 17 -25 3 -10 -16 -55 -12 -55 4 0 8 5 18 11 22 7
4 10 26 7 58 -3 28 -3 45 -1 39 6 -17 23 -17 23 0 0 21 -37 82 -49 82 -6 0
-15 5 -19 11 -18 28 -92 46 -92 23 0 -8 -5 -7 -15 1 -13 10 -19 9 -36 -5 -16
-16 -19 -26 -13 -62 5 -34 3 -44 -10 -49 -9 -3 -16 -15 -16 -25 0 -11 -17 -31
-39 -47 -62 -44 -116 -132 -80 -132 6 0 9 -10 7 -22 -2 -15 -17 -30 -43 -43
-50 -25 -55 -31 -55 -77 0 -42 -2 -43 -250 -171 -69 -36 -146 -84 -173 -107
-67 -59 -122 -163 -147 -280 -36 -159 -55 -220 -123 -391 -36 -90 -68 -185
-72 -211 -4 -30 -19 -68 -42 -100 -19 -29 -44 -70 -55 -91 -24 -48 -37 -40
-63 38 -12 35 -22 50 -27 42 -5 -9 -8 -9 -8 0 0 6 -3 20 -6 30 -5 15 -4 16 6
3 9 -12 10 -9 5 15 -4 17 -9 55 -11 85 -3 51 -13 93 -35 145 -21 49 -49 140
-49 160 0 11 -4 25 -9 31 -5 5 -14 27 -21 49 -7 22 -30 75 -51 117 -23 46 -39
91 -39 112 0 19 -6 41 -13 47 -10 9 -11 25 -5 58 15 88 15 106 -2 131 -10 14
-21 36 -25 50 -4 13 -14 30 -21 38 -8 7 -17 25 -20 40 -4 15 -21 52 -39 82
-35 61 -111 267 -102 277 7 7 12 -3 72 -157 24 -63 45 -107 45 -97 0 14 10 17
60 17 33 0 78 7 100 16 23 9 50 13 63 9 80 -24 91 -24 114 -3 21 20 24 20 62
5 36 -15 44 -15 96 0 52 15 62 23 129 102 39 47 81 100 93 116 26 37 214 135
260 135 28 0 36 7 66 58 19 31 58 103 87 160 84 167 126 214 283 317 46 30 43
30 50 5 3 -13 13 -19 29 -19 12 1 35 -2 51 -6 31 -8 34 0 11 26 -9 10 -15 28
-14 41 1 13 2 58 1 101 -1 44 3 77 9 77 12 0 40 -53 40 -77 1 -15 3 -14 13 5
7 12 23 29 35 38 12 8 22 22 22 31 0 9 6 13 14 10 17 -7 46 33 46 61 0 24 23
44 42 37 8 -3 21 1 28 10 7 8 23 15 37 15 15 0 22 4 17 11 -4 8 3 9 24 4 18
-3 33 -2 37 4 3 6 17 11 29 11 17 0 27 9 36 30 7 17 16 30 21 30 5 0 9 5 9 11
0 5 -4 7 -10 4 -14 -9 -30 3 -24 19 3 8 26 13 65 14 68 2 101 -10 92 -34 -4
-12 0 -14 21 -8 16 4 26 2 26 -5 0 -19 21 -12 41 13 16 20 25 24 54 19 24 -4
35 -2 35 7 0 7 -8 10 -19 7 -14 -3 -18 -1 -14 10 4 10 16 12 47 8 22 -3 59 -2
81 4 50 12 92 7 114 -13z m412 -2 c11 -9 19 -22 19 -27 0 -6 -8 -2 -19 7 -10
9 -35 20 -55 23 -50 8 -53 19 -4 16 22 -1 49 -10 59 -19z m-1001 11 c0 -2 -13
-11 -30 -20 -38 -19 -40 -11 -2 9 31 17 32 18 32 11z m1555 -55 c-27 -12 -43
-12 -25 0 8 5 22 9 30 9 10 0 8 -3 -5 -9z m-896 -64 c2 -44 -17 -74 -39 -61
-13 8 -13 55 0 55 5 0 7 7 4 15 -9 22 3 46 19 39 8 -3 14 -23 16 -48z m511
-97 c25 -31 28 -38 12 -30 -21 11 -52 49 -52 63 0 14 6 9 40 -33z m-716 6 c-4
-8 -10 -15 -15 -15 -4 0 -6 7 -3 15 4 8 10 15 15 15 4 0 6 -7 3 -15z m565 -84
c-51 -16 -69 -33 -110 -104 -23 -39 -59 -100 -81 -135 -24 -41 -38 -76 -39
-100 -1 -32 -2 -34 -8 -12 -12 40 -10 44 103 229 68 112 87 131 130 130 30 -1
30 -1 5 -8z m271 -62 c0 -6 -4 -7 -10 -4 -5 3 -10 11 -10 16 0 6 5 7 10 4 6
-3 10 -11 10 -16z m27 -31 l28 -11 -34 -6 -35 -6 27 -29 c37 -40 34 -41 -17
-3 -50 36 -57 54 -23 60 12 2 23 5 24 6 1 0 14 -4 30 -11z m-865 -95 c4 -37
-15 -93 -26 -75 -14 23 -18 93 -6 107 17 21 27 11 32 -32z m-1491 17 c3 -22 5
-26 21 -48 11 -16 17 -19 20 -10 8 22 64 -3 60 -27 -2 -11 -9 -23 -14 -26 -14
-9 -89 2 -105 15 -45 37 -45 37 -24 60 12 12 21 28 21 34 0 14 19 16 21 2z
m1411 -12 c-14 -14 -16 -42 -2 -33 6 3 10 -5 10 -19 0 -27 -10 -39 -25 -28
-14 10 -47 74 -35 67 6 -4 17 1 26 9 8 9 21 16 27 16 8 0 7 -4 -1 -12z m-2039
-15 c-7 -2 -19 -2 -25 0 -7 3 -2 5 12 5 14 0 19 -2 13 -5z m-723 -87 c0 -2
-13 -6 -29 -8 -17 -2 -28 -1 -25 4 5 8 54 12 54 4z m1275 -52 c27 -35 27 -36
3 -20 -24 16 -68 62 -68 71 0 14 40 -18 65 -51z m-1385 -5 c-7 -11 -14 -18
-17 -15 -3 3 0 12 7 21 18 21 23 19 10 -6z m868 -1 c14 -27 34 -93 26 -85 -13
13 -53 107 -45 107 4 0 13 -10 19 -22z m462 3 c0 -5 3 -17 7 -27 4 -11 3 -15
-4 -11 -14 9 -24 47 -12 47 5 0 9 -4 9 -9z m-326 -57 c3 -8 2 -12 -4 -9 -6 3
-10 10 -10 16 0 14 7 11 14 -7z m256 -14 c0 -19 5 -30 14 -30 8 0 17 -7 20
-16 9 -24 7 -36 -6 -28 -8 5 -9 2 -5 -9 3 -9 2 -19 -3 -22 -9 -6 -25 37 -35
98 -4 23 -2 37 5 37 5 0 10 -13 10 -30z m223 20 c15 0 27 -5 27 -11 0 -6 -8
-8 -19 -4 -12 3 -21 0 -25 -10 -6 -17 -51 -21 -61 -5 -3 6 -12 10 -18 10 -19
-1 25 -30 44 -30 9 0 19 -7 23 -15 3 -8 12 -15 20 -15 8 0 20 -8 26 -17 10
-17 10 -17 8 1 -4 22 34 32 50 13 17 -20 8 -52 -14 -52 -21 0 -44 -18 -44 -34
0 -14 -13 -14 -27 0 -8 8 -20 5 -45 -13 -59 -42 -88 -28 -88 42 0 36 3 48 13
44 9 -3 13 7 13 36 0 29 -4 40 -15 41 -9 1 2 7 24 15 22 7 49 11 60 9 11 -3
32 -5 48 -5z m-1473 -44 c0 -28 -13 -10 -17 22 -3 21 -1 24 7 12 5 -8 10 -24
10 -34z m360 -19 c0 -23 -4 -36 -10 -32 -5 3 -10 27 -10 53 0 34 3 43 10 32 5
-8 10 -32 10 -53z m120 -12 c0 -16 -3 -14 -15 9 -19 36 -19 56 0 30 8 -10 14
-28 15 -39z m678 -65 c0 -32 -1 -33 -8 -10 -4 14 -8 41 -8 60 0 32 1 33 8 10
4 -14 8 -41 8 -60z m-108 20 c6 -27 10 -55 7 -62 -3 -7 -6 -3 -6 8 -1 12 -8
40 -16 63 -8 22 -10 41 -6 41 5 0 14 -22 21 -50z m127 18 c-3 -7 -5 -2 -5 12
0 14 2 19 5 13 2 -7 2 -19 0 -25z m-283 -9 c-3 -5 -10 -7 -15 -3 -5 3 -7 10
-3 15 3 5 10 7 15 3 5 -3 7 -10 3 -15z m-393 -96 c14 -17 39 -111 39 -149 0
-17 -7 -37 -15 -44 -13 -11 -14 -8 -9 17 8 39 -23 153 -49 181 -18 19 -18 22
-4 22 13 0 17 10 19 38 1 35 2 35 5 -8 3 -24 9 -50 14 -57z m479 77 c14 0 20
-74 7 -82 -20 -13 -25 -9 -32 25 -4 17 -9 41 -12 51 -4 15 -1 18 12 13 9 -4
20 -7 25 -7z m-60 -88 c0 -7 -4 -10 -10 -7 -5 3 -10 16 -10 28 0 18 2 19 10 7
5 -8 10 -21 10 -28z m1810 -32 c-8 -5 -22 -10 -30 -10 -13 0 -13 1 0 10 8 5
22 10 30 10 13 0 13 -1 0 -10z m597 -67 c-2 -16 -4 -5 -4 22 0 28 2 40 4 28 2
-13 2 -35 0 -50z m-1102 2 c0 -32 -19 -45 -29 -19 -9 22 3 56 17 51 7 -2 12
-16 12 -32z m-71 -189 c-16 -39 -32 -72 -36 -74 -5 -2 -8 -8 -8 -12 0 -14 -42
-81 -47 -76 -3 3 7 26 21 51 15 25 38 76 52 113 39 105 36 99 41 83 3 -7 -7
-45 -23 -85z m-1698 -103 c-3 -4 -13 10 -21 30 -21 51 -18 59 6 14 11 -22 18
-41 15 -44z m2629 -13 c10 -22 22 -40 27 -40 4 0 8 -7 8 -16 0 -36 -46 25 -65
85 -11 37 9 17 30 -29z m-2575 -108 c12 -34 20 -72 18 -84 -2 -14 -12 9 -27
61 -12 46 -25 91 -28 100 -13 43 17 -20 37 -77z m2350 -59 c-5 -10 -28 -38
-51 -63 -37 -40 -39 -41 -19 -10 23 34 70 90 77 90 2 0 -1 -8 -7 -17z m-533
-95 c-2 -18 -4 -4 -4 32 0 36 2 50 4 33 2 -18 2 -48 0 -65z m-1743 -4 c3 -8 2
-12 -4 -9 -6 3 -10 10 -10 16 0 14 7 11 14 -7z m1753 -56 c-3 -8 -6 -5 -6 6
-1 11 2 17 5 13 3 -3 4 -12 1 -19z m-60 -125 c-2 -16 -4 -3 -4 27 0 30 2 43 4
28 2 -16 2 -40 0 -55z m-1610 -145 c-3 -8 -6 -5 -6 6 -1 11 2 17 5 13 3 -3 4
-12 1 -19z m112 -308 c0 -8 -9 8 -19 35 -11 28 -20 55 -19 60 0 15 38 -78 38
-95z m128 -492 c-3 -8 -6 -5 -6 6 -1 11 2 17 5 13 3 -3 4 -12 1 -19z m23 -53
c0 -5 -5 -3 -10 5 -5 8 -10 20 -10 25 0 6 5 3 10 -5 5 -8 10 -19 10 -25z
m2239 22 c-22 -18 -79 -44 -79 -38 0 9 58 40 74 41 5 0 7 -1 5 -3z m-510 -30
c-2 -1 -13 -9 -24 -17 -19 -14 -19 -14 -6 3 7 9 18 17 24 17 6 0 8 -1 6 -3z
m814 -294 c-7 -2 -19 -2 -25 0 -7 3 -2 5 12 5 14 0 19 -2 13 -5z m-2393 -47
c0 -12 -5 -7 -19 24 -11 24 -11 24 3 6 9 -11 16 -24 16 -30z m2243 37 c-7 -2
-19 -2 -25 0 -7 3 -2 5 12 5 14 0 19 -2 13 -5z m160 -250 c-7 -2 -19 -2 -25 0
-7 3 -2 5 12 5 14 0 19 -2 13 -5z"/>
<path d="M3615 5270 c3 -5 14 -10 23 -10 15 0 15 2 2 10 -20 13 -33 13 -25 0z"/>
<path d="M3310 4991 c0 -6 4 -13 10 -16 6 -3 7 1 4 9 -7 18 -14 21 -14 7z"/>
<path d="M3496 4583 c-6 -14 -5 -15 5 -6 7 7 10 15 7 18 -3 3 -9 -2 -12 -12z"/>
<path d="M3525 4580 c-3 -5 -1 -10 4 -10 6 0 11 5 11 10 0 6 -2 10 -4 10 -3 0
-8 -4 -11 -10z"/>
<path d="M4323 4485 c-6 -25 -7 -45 -3 -45 4 0 10 10 13 23 3 12 9 32 12 45 4
12 3 22 -2 22 -5 0 -14 -20 -20 -45z"/>
<path d="M4272 4187 c2 -12 10 -22 18 -22 22 0 19 38 -3 41 -14 2 -17 -3 -15
-19z"/>
<path d="M4345 4012 c-47 -4 -74 -23 -29 -21 42 2 91 14 79 19 -5 3 -28 4 -50
2z"/>
<path d="M3711 3844 c-11 -13 -11 -18 0 -24 12 -8 38 14 39 33 0 13 -24 7 -39
-9z"/>
<path d="M3573 3645 c0 -14 3 -22 8 -19 5 3 9 11 9 19 0 8 -4 16 -9 19 -5 3
-8 -5 -8 -19z"/>
<path d="M3612 3613 c-35 -42 -40 -55 -17 -47 8 4 15 9 15 14 0 4 9 17 20 30
18 21 26 40 17 40 -2 0 -18 -17 -35 -37z"/>
<path d="M3657 3590 c-20 -33 -14 -59 8 -40 13 11 26 70 15 70 -3 0 -14 -14
-23 -30z"/>
<path d="M3491 3234 c0 -11 3 -14 6 -6 3 7 2 16 -1 19 -3 4 -6 -2 -5 -13z"/>
<path d="M3816 2900 c-19 -6 -19 -7 1 -12 25 -7 53 6 31 14 -7 3 -22 2 -32 -2z"/>
<path d="M3872 2813 c3 -19 48 -32 48 -14 0 10 -31 31 -45 31 -4 0 -5 -8 -3
-17z"/>
<path d="M4035 2740 c-3 -5 -1 -10 4 -10 6 0 11 5 11 10 0 6 -2 10 -4 10 -3 0
-8 -4 -11 -10z"/>
<path d="M1041 5394 c0 -11 3 -14 6 -6 3 7 2 16 -1 19 -3 4 -6 -2 -5 -13z"/>
<path d="M1610 3780 c-18 -12 -2 -12 25 0 13 6 15 9 5 9 -8 0 -22 -4 -30 -9z"/>
<path d="M1260 3740 c-9 -6 -10 -10 -3 -10 6 0 15 5 18 10 8 12 4 12 -15 0z"/>
<path d="M1695 3700 c-3 -5 1 -10 9 -10 9 0 16 5 16 10 0 6 -4 10 -9 10 -6 0
-13 -4 -16 -10z"/>
</g>
</svg>
